{"title":"Udta Punjab Hindi 2016 DesiSCR x264-Hindify.mp4","uid":15577974,"size":735920825,"categoryP":"video","categoryS":"movies","magnet":"?xt=urn:btih:852df04f9939ad45ff704a4bc44b209db23328e3&amp;dn=Udta+Punjab+Hindi+2016+DesiSCR+x264-Hindify.mp4&amp;tr=udp%3A%2F%2Ftracker.leechers-paradise.org%3A6969&amp;tr=udp%3A%2F%2Fzer0day.ch%3A1337&amp;tr=udp%3A%2F%2Fopen.demonii.com%3A1337&amp;tr=udp%3A%2F%2Ftracker.coppersurfer.tk%3A6969&amp;tr=udp%3A%2F%2Fexodus.desync.com%3A6969","seeders":1,"leechers":0,"uploader":null,"files":1,"time":1471366271,"description":"Udta Punjab Hindi 2016 DesiSCR x264-Hindify.mp4\r\n\r\nScreenshots:\r\n \nhttp://extraimago.com/images/2016/08/16/vlcsnap-2016-08-16-11h48m05s319.png \nhttp://extraimago.com/images/2016/08/16/vlcsnap-2016-08-16-11h48m02s208.png \nhttp://extraimago.com/images/2016/08/16/vlcsnap-2016-08-16-11h47m58s786.png \nhttp://extraimago.com/images/2016/08/16/vlcsnap-2016-08-16-11h47m55s733.png \nhttp://extraimago.com/images/2016/08/16/vlcsnap-2016-08-16-11h47m51s564.png\r\n\r\nInfo:\r\n\r\nFormat : MPEG-4\r\nFormat profile : Base Media\r\nCodec ID : isom (isom/iso2/avc1/mp41)\r\nFile size : 702 MiB\r\nDuration : 2 h 28 min\r\nOverall bit rate : 659 kb/s\r\nWriting application : Lavf57.20.100\r\n\r\nVideo\r\nID : 1\r\nFormat : AVC\r\nFormat/Info : Advanced Video Codec\r\nFormat profile :   \r\nFormat settings, CABAC : Yes\r\nFormat settings, ReFrames : 4 frames\r\nCodec ID : avc1\r\nCodec ID/Info : Advanced Video Coding\r\nDuration : 2 h 28 min\r\nBit rate : 589 kb/s\r\nWidth : 640 pixels\r\nHeight : 272 pixels\r\nDisplay aspect ratio : 2.35:1\r\nFrame rate mode : Variable\r\nFrame rate : 23.976 (24000/1001) FPS\r\nMinimum frame rate : 23.564 FPS\r\nMaximum frame rate : 24.390 FPS\r\nColor space : YUV\r\nChroma subsampling : 4:2:0\r\nBit depth : 8 bits\r\nScan type : Progressive\r\nBits/(Pixel*Frame) : 0.141\r\nStream size : 627 MiB (89%)\r\nWriting library : x264 core 142 r2431 ac76440\r\nEncoding settings : cabac=1 / ref=3 / deblock=1:0:0 / analyse=0x3:0x113 / me=hex / subme=7 / psy=1 / psy_rd=1.00:0.00 / mixed_ref=1 / me_range=16 / chroma_me=1 / trellis=1 / 8x8dct=1 / cqm=0 / deadzone=21,11 / fast_pskip=1 / chroma_qp_offset=-2 / threads=1 / lookahead_threads=1 / sliced_threads=0 / nr=0 / decimate=1 / interlaced=0 / bluray_compat=0 / constrained_intra=0 / bframes=3 / b_pyramid=2 / b_adapt=1 / b_bias=0 / direct=1 / weightb=1 / open_gop=0 / weightp=2 / keyint=240 / keyint_min=23 / scenecut=40 / intra_refresh=0 / rc_lookahead=40 / rc=2pass / mbtree=1 / bitrate=589 / ratetol=1.0 / qcomp=0.60 / qpmin=0 / qpmax=69 / qpstep=4 / cplxblur=20.0 / qblur=0.5 / ip_ratio=1.40 / aq=1:1.00\r\n\r\nAudio\r\nID : 2\r\nFormat : AAC\r\nFormat/Info : Advanced Audio Codec\r\nFormat profile : HE-AAC / LC\r\nCodec ID : 40\r\nDuration : 2 h 28 min\r\nBit rate mode : Constant\r\nBit rate : 64.0 kb/s\r\nChannel(s) : 2 channels\r\nChannel positions : Front: L R\r\nSampling rate : 48.0 kHz / 24.0 kHz\r\nFrame rate : 23.438 FPS (1024 spf)\r\nCompression mode : Lossy\r\nStream size : 68.2 MiB (10%)\r\nLanguage : Hindi\r\nDefault : Yes\r\nAlternate group : 1 \r\n \nhttp://tvmoviereviews.drupalgardens.com/content/udta-punjab-review","torrent":{"xt":"urn:btih:852df04f9939ad45ff704a4bc44b209db23328e3","amp;dn":"Udta+Punjab+Hindi+2016+DesiSCR+x264-Hindify.mp4","amp;tr":["udp%3A%2F%2Ftracker.leechers-paradise.org%3A6969","udp%3A%2F%2Fzer0day.ch%3A1337","udp%3A%2F%2Fopen.demonii.com%3A1337","udp%3A%2F%2Ftracker.coppersurfer.tk%3A6969","udp%3A%2F%2Fexodus.desync.com%3A6969"],"infoHash":"852df04f9939ad45ff704a4bc44b209db23328e3","infoHashBuffer":{"type":"Buffer","data":[133,45,240,79,153,57,173,69,255,112,74,75,196,75,32,157,178,51,40,227]},"announce":[],"urlList":[]}}